<?xml version="1.0" encoding="UTF-8"?>
<svg id="Laag_1" data-name="Laag 1" xmlns="http://www.w3.org/2000/svg" xmlns:xlink="http://www.w3.org/1999/xlink" viewBox="0 0 927.67 181.79">
  <defs>
    <style>
      .cls-1 {
        fill: none;
      }

      .cls-2 {
        fill: #003c7e;
      }

      .cls-3 {
        clip-path: url(#clippath);
      }
    </style>
    <clipPath id="clippath">
      <rect class="cls-1" x="0" width="927.67" height="181.79"/>
    </clipPath>
  </defs>
  <g class="cls-3">
    <path class="cls-2" d="M541.8,95.86h-56.13v85.22h56.13v-14.85h-39.49v-20.7h33.63v-14.85h-33.63v-19.98h39.49v-14.85ZM363.26,110.71c5.74,0,9.57,1.8,12.44,5.26,3.12,3.84,3.59,9.22,3.59,22.15s-.47,19.02-3.59,22.86c-2.87,3.46-6.7,5.26-12.44,5.26h-12.57v-55.53h12.57ZM364.81,95.86h-30.75v85.21h30.75c8.86,0,16.88-2.51,22.5-8.13,9.57-9.58,8.61-22.02,8.61-34.83s.96-24.54-8.61-34.12c-5.62-5.62-13.64-8.14-22.5-8.14M317.69,95.86h-16.63v85.21h16.63v-85.21ZM267.75,85.22h16.63V0h-16.4l-22.14,46.08L223.58,0h-16.4v85.21h16.63v-49.67l16.4,32.31h11.25l16.28-32.31v49.67ZM267.79,181.08h16.63v-85.22h-16.4l-22.14,46.08-22.26-46.08h-16.4v85.22h16.63v-49.68l16.4,32.32h11.26l16.27-32.32v49.68ZM342.56,56.14h-21.18l10.76-30.99,10.42,30.99ZM352.01,85.22h17.35L338.25,0h-13.04l-31,85.21h17.35l5.14-15.08h30.29l5.02,15.08ZM423.53,26.1c0,6.58-4.79,11.25-12.09,11.25h-15.68V14.85h15.68c7.3,0,12.09,4.68,12.09,11.26M443.64,85.22l-19.03-36.74c8.26-2.99,15.56-10.41,15.56-22.38C440.17,11.86,429.88,0,412.52,0h-33.39v85.21h16.63v-33.99h11.97l16.63,33.99h19.27ZM454.86,85.22h16.63V0h-16.63v85.21ZM455.1,138.11c0,12.92-.48,19.02-3.59,22.86-2.87,3.46-6.71,5.26-12.45,5.26h-12.57v-55.53h12.57c5.74,0,9.58,1.8,12.45,5.26,3.11,3.84,3.59,9.22,3.59,22.15M471.74,138.11c0-12.81.96-24.54-8.62-34.12-5.62-5.62-13.64-8.14-22.49-8.14h-30.76v85.21h30.76c8.85,0,16.87-2.51,22.49-8.13,9.58-9.58,8.62-22.02,8.62-34.83M529.41,56.14h-21.18l10.77-30.99,10.41,30.99ZM538.86,85.22h17.35L525.09,0h-13.04l-31,85.21h17.35l5.15-15.08h30.28l5.02,15.08ZM555.03,181.08h55.29v-14.85h-38.66v-70.38h-16.63v85.22ZM665.52,152h-21.19l10.77-31,10.42,31ZM674.97,181.07h17.35l-31.12-85.21h-13.04l-31,85.21h17.35l5.14-15.08h30.29l5.02,15.08ZM746.49,121.95c0,6.58-4.79,11.25-12.09,11.25h-15.68v-22.49h15.68c7.3,0,12.09,4.67,12.09,11.25M766.6,181.07l-19.03-36.74c8.26-2.99,15.56-10.41,15.56-22.38,0-14.25-10.29-26.1-27.65-26.1h-33.39v85.21h16.63v-33.99h11.97l16.63,33.99h19.27ZM777.82,181.08h56.13v-14.85h-39.49v-20.7h33.63v-14.85h-33.63v-19.98h39.49v-14.85h-56.13v85.22ZM892.81,115.49l10.53-10.41c-7.3-7.06-15.8-9.94-27.53-9.94-18.43,0-29.68,10.65-29.68,25.85,0,7.18,2.03,12.69,6.11,16.75,3.83,3.71,9.22,5.99,16.52,7.06l10.29,1.44c3.95.59,5.86,1.43,7.54,2.99,1.8,1.68,2.63,4.18,2.63,7.18,0,6.82-5.27,10.53-15.08,10.53-7.9,0-15.2-1.8-20.59-7.18l-10.77,10.77c8.39,8.49,18.19,11.25,31.12,11.25,17.84,0,31.6-9.33,31.6-25.85,0-7.54-2.04-13.76-6.58-18.07-3.59-3.34-8.5-5.51-16.28-6.58l-10.05-1.43c-3.47-.48-6.23-1.8-7.9-3.35-1.8-1.68-2.52-3.95-2.52-6.11,0-5.86,4.31-10.77,13.17-10.77,5.62,0,12.09.72,17.47,5.87"/>
    <path class="cls-2" d="M79.89,127.06c3.82,7.03,2.26,10.26.96,14.04,6.61-5.71,2.72-11.28-.96-14.04"/>
    <path class="cls-2" d="M52.68,84.12c-1.21.93-3.56,7.22-1.73,8.6,2.35-.85,4.57.63,6.37,1.26.56-.54.08-1.07,0-1.75-4.65-1.84-3.97-5.8-4.65-8.12"/>
    <path class="cls-2" d="M51.87,94.73c4.64,4.33,6.95,12.69,5.44,22.66,6.65-9.57,1.16-23.77-5.44-22.66"/>
    <path class="cls-2" d="M71.2,141.53c-.19-1.72-5.03-18.2-14.24-22.95-5.62,12.75-25.52,28.72-25.52,28.72-.02,3.56,2.93-.64,4.44-.98,2.61,1.35,3.34,3.15,4.55,5.91,1.43-3.04.34-6.04-1.52-8.34,4.31-3.63,6.05-5.14,9.45-9.22.08,1.05-5.23,13.61-2.28,18.54-2.32,2.39-4.29,4.97-.72,10.63.75-2.24,1.37-8.99,4.79-8.68-2.01,2.41-2.55,11.06.71,11.88,0-2.13,1.36-16.48,10.46-2.92-.61-5.17-7.84-15.2-1.97-18.84,4.32,6.74,28.65,1.28,27.78-1.45-.86-2.73-15.11,5.27-15.92-2.29"/>
    <path class="cls-2" d="M79.88,166.44c7.3-10.71,1.37-9.82-.24-16.85-4.11,5.33,2.92,9.05.24,16.85"/>
    <path class="cls-2" d="M138.18,126.42c.69-1.06.91-3.9-.3-4.93-.23,1.71-1.39,4.26.3,4.93"/>
    <path class="cls-2" d="M87.42,56.81c-2.1-2.01-9.52-2.83-11.02.29,1.39,4.76,9.28,2.68,11.02-.29"/>
    <path class="cls-2" d="M48,84.28c1.37-1.7,1.82-3.61,2.94-4.46,1.9,3.48,4.24,1.35,7.47,3.38.25,2.37.22,6.8,3.2,6.96,11.49.61,12.21-7.75,21.17-11.89-4.22,11.02.5,18.97,4.74,12.93,2.62,3.09,5.03,3.21,6.15,6.95-3.63,2.11-1.75,6.63-4.83,6.96,5.24,9.43,4.22,18.73,13.3,26.89-5.64-.31-10.28-1.21-16.17-19.79-3.47-10.72-15.83-13.98-10.65-20.19-1.26-.09-4.61,1.11-4.82,2.05-.3,1.46,1.41,1.27,1.56,2.28,0,.97-1.26,1.5-2.04,2.23-5.56,5.16,8.5,6.09,10.06,10.15-.49-.09,5.44,24.76,15.11,30.51,3.93,2.72,7.25,4.84,16.03,5.75,6.98-.38,10.21,5.11,8.7,8.11,0,0,2.82-1.5,6.67-2.6,10.37-2.99,13.61,1.96,13.92,2.6,3.2.5,3.62-1.79,5.8-2.32-.68,2.38.74,4.81-.17,7.22-.79-1.34-1.5-2.94-3.83-2.61,3.05,4.82,3.12,13.46,8.93,9.61-5.84-.11-2.38-14.49,2.32-25.24,2.16-4.92-.52-8.47-2.8-13.02-2.06-3.99-7.1-11.03-7.33-11.27-.19-.18,5.41,8.67,4.73,11.25,5.47,3.67,6.56,14.04,1.06,16.53-.9.43-1.6.59-2.6.58-3.32-.28-4.18-2.44-8.21-.86-6.26-1.83-6.67-6.7-6.88-7.84,2.27,1.08,7.22-.04,10.06,2.99-.19-.19-1.47-7.08-4.47-3.46-.83-.29-3.45-.79-4.18-.96,2.06-4.81-2.96-8.84-4.47-9.47-1.21,1.35-.81,1.8-.42,2.77-5.24,3.51,1.59,11.34-4.76,15.26-10.8-10.21-4.23-21.44-12.09-29.6,1.16.2,5.61,3.4,6.57,3.39.74,1.38.72,5.17,2.73,4.27,1.94-1.01.29-4.4,0-5.22,4.24-2.03,6.96-5.33,9.3-9.23.54-.07,8.34,4.79,8.87,4.74-.31-.49-8.15-5.87-8.15-6.49.02-1.28.85-2.86,1.63-3.32-.7-5.24,5.68-5.67,4.86-12.93-.69-4.07-2.53-6.17-2.89-6.14,3.02,6.36,1.29,9.64,0,9.9-.13-1.85-.93-1.91-.87-3.48-2.76.79-1.22,4.32-1.45,6.68-.08.91-.22,1.74-.37,2.53-.37-.84-.86-1.77-.79-2.24-2.09-2.45-5.05-1.01-6.37.7.2.74-.02,1.53.28,1.91,2.21-.04,4.44,0,6.67.53-.5,2.12-1.2,3.95-2,5.77l-1.11,1.79c-.94,1.17-2.3,2.92-3.78,4.23-1.81,1.62-2.66-1.27-4.03-.99.09-1.04.65-2.33,3.39-2.25.11-.13-1.15-2.12,0-2.81,0,0,.84.76,1.88,1.32l.54-1.42c-.7-.43-1.76-1.28-2.71-2.41.25-1.83-.15-3.55-.02-5.22-1.45-.3-1.87-1.61-3.2-2.03.69-2.29-2.12-3.44-2.6-5.52,2.3-3.06,11.42,1.55,13.71-3.83-3.18,1.24-23.51-.87-19.06-6.94,4.46-6.09,16.21-.28,15.79-2.29-8.8-5.15-21.46-1.16-22.33,9-2.03.58-1.93,3.3-3.48,4.35-1.7-1.79-4.98-4.34-6.1-7.83-.32-.99.08-2.29-.29-3.48-.64-2.06-2.3-2.96-2.32-4.64-.02-1.25,1.02-2.43,1.15-3.78.11-1.02-.24-1.93-.29-3.19-.16-3.95,1.61-8.36,1.16-11.6-.53-3.81-4.1-7.48-3.78-11.02.15-1.55,1.73-2.94,2.03-4.64.18-.94-.18-2.1,0-3.19.37-2.27,1.44-4.39,1.75-6.1.6-3.42.3-6.22.29-9.87-3.82.12-6.79,2.93-9.58,5.21-.05-1.79-2.8-4.72-5.8-5.57.55-2.69-4.1-6.18-6.37-3.98,2.55-.38,6.06,1.67,5.22,4.64.91.55,6.49,3.01,6.09,6.97-.05.58,1.17.17,1.28.72.11.57-1.12,1.51-.83,2.67.36,1.43,1.82,1.9,3.04,2.11,3.98.46,3.72,2.28,3.47,4.09-4.24-3.66-11.11.41-11.65-4.56-.1-.87.9-1.59.36-2.76-.49-1.04-2.89-1.26-3.03,1.14-.08,2.92,1.35,4.79,3.61,5.91,3.17,1.08,6.16.04,9.45,1.53,2.12,1,.66,2.85.22,3.82,0,.2.09-2.01-5.74-2.64l-.31,1.22c4.43.41,5.24,2.12,5.64,2.98.42,7.06,4.34,7.26,3.48,12.17.07-2.58-5.45-11.73-18.27-13.34,1.63,2.34,4.48,1.72,7.54,4.35,3.33,3.27,4.82,8.1,4.35,14.21-.63,8.15-5.61,16.81-10.72,19.15-1.9.7-4.06-.2-3.78-2.6.16-1.12,2.67-1.62,4.06-2.61,1.11-.72-1.4-.34-1.16-1.45,1.11-.73,3.89.21,3.78-1.75-1.52.15-3.63,1.2-5.22.3.71-1.3,1.92-2.13,2.89-3.2-.83-1.6-2.12-.59-2.89-2.32-.82-1.78.29-8.03-.88-9.86-1.35-1.93-5.84-.74-7.25-2.61.63-2.96-.73-3.38-.29-4.64,1.05-2.98,7.36-3.41,7.1-6.8-7.84,2.42-11.38.39-11.78-.83.79,0,5.44-2.34,15.11-1.36.82.13,1.24-.66-.48-1.04-7.84-1.35-15.05,1.44-15.05,1.44l-.51-1.77c2.22-1.28,12.26-2.64,16.35-.89,1.25.36,1.63-.88.56-1.53-1.59-.82-17.32-10.89-4.47-13.68,1.87-.42,3.09-4.36-.46-6.04-1.13,1.61-3.07,2.14-4.64,4.06-1.47,1.81-2.15,5.43-4.35,5.51-3.33.14-5.7-8.51-11.31-6.96-.73,4.58-1,8.51-.58,13.05.56,6.14,4.23,10.87,3.48,16.24-.58,4.13-2.5,6.92-2.03,10.73.19,1.58,1.02,2.51.87,4.05-.31,3.17-3.65,6.72-2.32,9.58,1.07,2.28-1.42,3.94-.29,4.35,1.34.36,1.29-1.03,2.9-.58,1.8.63,1.14,2.11.29,2.89-1.7-.61-4.6-2.12-5.74-.61-1.15,1.52-2.49,4.55-5.69,5.6-3.22,1.06-3.58,3.35-3.58,3.35,3.72-.19,6.7-1.8,8.08-3.49M120.68,98.66c-.27.99,1.58,2.14-.62,4.56-1.06-.3-1.11-2.05-2.47-2.03,0-.3-.18-1.28-.18-1.57.41-.42,2.85-1.38,3.27-.96M87.39,30.05c-.6-.6,1.04-2.32.89-2.97-.15-.66-1.72-1.06-1.72-1.06,2.12-1.82,5.08-3.81,8.13-4.9-.3,3.21.49,5.72-.83,9.81-.82-.55-4.66,1.39-6.47-.88M112.76,76.08c-1.96,1.48-2.92,3.21-1.78,4.98-4.16-2.06.77-4.62,1.78-4.98M110.03,88.83c-1.26,0-3.89-1.57-3.74-2.97,1.23.03,3.44,2.01,3.74,2.97M88.94,73.56c1.68-2.26,3.02-6.43,3.02-6.43,2.74-.79,0,3.74.13,6.16.25,2.72,3.32,2.87,2.78,7.88-.31,4.22,9.73,10.32,10.83,17.99,4.17-.69,3.26,6.21,4.06,6.97-5.31-.26-6.85-14.97-13.67-10.38,0,0-7.22-4.45-6.93-6.88.45-2.09,3.74,1.66,5.81,2.58,1.49.49,1.46-2.52.98-4.61-3.78,1.59-6.22.06-6.78-3.33-.21-1.88,2.23-1.93,2.28-.84,0,.77-.08,2.47,1.2,2,1.27-.46.42-4.89-.75-7.13-1.17-2.24-3.63-3.08-2.96-3.97M70.89,62.03c.46,2.6.76,7.26-2.03,7.54-2.44-2.19-5-11.22,2.03-7.54M54.36,20.55c5,.84,5.11,8.62,12.77,8.41-.41,2.73-3.52,2.75-5.23,2.32-5.97-2.26-3.74-7.09-7.54-10.72"/>
    <path class="cls-2" d="M0,181.06h180.81V.25H0v180.81ZM39.85,170.5c-.05,1.24.09,2.17.88,3.78,0,0,.02.02.03.04h-1.8c-.17-1.13.05-2.4.89-3.82M105.11,170.8c.59,1.28,2.46,2.68,4.16,3.52h-4.41c-.1-1.1-.04-2.28.25-3.52M119.62,173.7c.09.22.21.41.32.62h-.27c0-.21-.05-.4-.05-.62M146.15,174.32s.06-.04.1-.05c0,0,0,.03,0,.05h-.1ZM174.07,174.32h-19.48c-.88-1.07-1.82-1.91-2.78-2.37-.43.65-.63,1.46-.68,2.37h-2.58c-1.15-6.9-7.96-14.22-16.92-15.7.08,5.04,8.03,7.89,8.87,12.17-4.3-1.11-6.92-3.91-9.86-6.38.82,2.66,3.18,3.78,3.77,6.68-.72-.74-1.87-1.04-2.9-1.46.33,1.65.74,3.19,1.2,4.69h-9.01c-.8-1.84-1.41-3.86-1.77-6.14-1.31-.34-2.15-1.13-2.9-2.02.72-.93-.58-3.79-1.74-4.65-2.85,1.89-2.34,7.14-4.65,9.58-.53-1.9.81-2.91-.29-4.65-6.75,1.06-7.2-6.47-10.15-10.15-3.18,6.3-4.7,12.54-5.04,18.03h-5.57c-.38-6.22.08-15.17,8.27-21.13-1.79.69-4.19-.54-4.49-.54-2.7,2.01-8.89,6.56-11.59,15.22-.63,2.19-.36,4.43.38,6.45h-28.88c-.24-.13-.45-.25-.64-.34-3.15-1.52-6.79-2.3-9.57-4.64-2.86-2.4-3.89-4.53-3.2-9.87-1.78,2.74-5.41,9.38-6.07,14.84h-9.62c2.53-4.02,3.95-8.41.97-12.57-1.71-2.36-2.57-5.88-10.15,8.54-.21-7.59,5.87-13.14,5.45-16.9-.43-3.76-3.77-3.37-3.1-7.46,3.67-16.05,46.2-45.36,16.44-52.29,1.92-2.13,4.13-3.57,7.25-3.19.32-1.38,1.43-2.85-.61-2.26-.86.26-2.44.3-3.31.3-10.15,6.48-13.55,15.66-15.52,19.95-1.98,4.3-4.1,18.18-3.77,23.2-.32.85-2.67,10.14-3.77,12.77-3.93,9.39-5.06,20.7-4.55,29.91h-4.79V6.99h167.33v167.33ZM34.67,102.67c1.62,7.17-8.18,14.44-9.48,14.58,4.62-5.69.71-13.28,8.98-21.35.19-.18-.33,3.1.5,6.77"/>
  </g>
</svg>