<svg width="36" height="41" viewBox="0 0 36 41" fill="none" xmlns="http://www.w3.org/2000/svg">
<path d="M0.868166 24.2653C0.863128 21.0427 1.82813 17.8879 3.64625 15.1834C2.51811 14.4103 1.59843 13.3881 0.964076 12.2022C0.329719 11.0164 -0.000833202 9.70149 1.57719e-06 8.36735C1.57719e-06 6.14819 0.914692 4.01992 2.54282 2.45074C4.17094 0.881557 6.37913 8.44456e-09 8.68165 8.44456e-09C10.838 -9.33102e-05 12.9172 0.773246 14.5144 2.16945C16.1117 3.56565 17.1127 5.48479 17.3225 7.5532C17.6235 7.53814 17.9264 7.53061 18.2315 7.53061C20.5116 7.53061 22.7695 7.96347 24.8761 8.80446C26.9827 9.64546 28.8968 10.8781 30.5091 12.4321C32.1215 13.9861 33.4004 15.8309 34.273 17.8612C35.1456 19.8916 35.5948 22.0677 35.5948 24.2653C35.5948 28.7036 33.7654 32.9602 30.5091 36.0985C27.2529 39.2369 22.8365 41 18.2315 41C13.6264 41 9.21005 39.2369 5.9538 36.0985C2.69755 32.9602 0.868166 28.7036 0.868166 24.2653Z" fill="#0B759F"/>
<path d="M5.209 25.1021C5.20488 22.7096 5.86909 20.3601 7.13196 18.3003C6.79777 17.9886 6.53213 17.6153 6.35091 17.2026C6.16968 16.7899 6.0766 16.3462 6.07717 15.898C6.07717 15.0103 6.44309 14.159 7.09434 13.5314C7.74559 12.9037 8.62882 12.5511 9.54983 12.5511C10.0149 12.5506 10.4752 12.6405 10.9035 12.8153C11.3317 12.9901 11.719 13.2463 12.0423 13.5685C13.7412 12.6001 15.636 11.994 17.5986 11.7913C17.4404 11.2204 17.3613 10.6318 17.3633 10.0409C17.3633 8.26554 18.095 6.56292 19.3975 5.30758C20.7 4.05223 22.4666 3.34698 24.3086 3.34698C26.1506 3.34698 27.9172 4.05223 29.2197 5.30758C30.5222 6.56292 31.2539 8.26554 31.2539 10.0409C31.2549 11.0585 31.0146 12.063 30.5515 12.9776C30.0884 13.8922 29.4147 14.6927 28.5817 15.3181C29.0515 15.7414 29.4904 16.1955 29.8953 16.677C30.5193 16.1727 31.3078 15.8969 32.1221 15.898C33.0431 15.898 33.9263 16.2506 34.5776 16.8783C35.2288 17.506 35.5948 18.3573 35.5948 19.2449C35.595 20.03 35.3089 20.7902 34.7865 21.3925C34.264 21.9949 33.5385 22.401 32.7368 22.54C32.906 23.3843 32.9909 24.2422 32.9903 25.1021C32.9903 28.6527 31.5268 32.058 28.9218 34.5687C26.3168 37.0793 22.7837 38.4898 19.0996 38.4898C15.4156 38.4898 11.8825 37.0793 9.27746 34.5687C6.67247 32.058 5.209 28.6527 5.209 25.1021Z" fill="#6DE6CF"/>
<path d="M27.7813 25.9387C27.7813 25.0511 28.1472 24.1998 28.7984 23.5721C29.4497 22.9444 30.3329 22.5918 31.2539 22.5918C32.1749 22.5918 33.0582 22.9444 33.7094 23.5721C34.3607 24.1998 34.7266 25.0511 34.7266 25.9387C34.7266 26.8264 34.3607 27.6777 33.7094 28.3054C33.0582 28.9331 32.1749 29.2857 31.2539 29.2857C30.3329 29.2857 29.4497 28.9331 28.7984 28.3054C28.1472 27.6777 27.7813 26.8264 27.7813 25.9387ZM4.34082 25.9387C4.34082 25.0511 4.70674 24.1998 5.35799 23.5721C6.00924 22.9444 6.89247 22.5918 7.81348 22.5918C8.73448 22.5918 9.61772 22.9444 10.269 23.5721C10.9202 24.1998 11.2861 25.0511 11.2861 25.9387C11.2861 26.8264 10.9202 27.6777 10.269 28.3054C9.61772 28.9331 8.73448 29.2857 7.81348 29.2857C6.89247 29.2857 6.00924 28.9331 5.35799 28.3054C4.70674 27.6777 4.34082 26.8264 4.34082 25.9387Z" fill="#0B759F"/>
</svg>
