<?xml version="1.0" encoding="UTF-8"?>
<svg id="Layer_2" data-name="Layer 2" xmlns="http://www.w3.org/2000/svg" viewBox="0 0 1967.19 338.58">
  <defs>
    <style>
      .cls-1 {
        fill: #2b3b53;
      }

      .cls-2 {
        fill: #1577a3;
      }

      .cls-3 {
        fill: #e83b68;
      }

      .cls-4 {
        fill: #82c9c0;
      }
    </style>
  </defs>
  <g id="Laag_1" data-name="Laag 1">
    <g>
      <polygon class="cls-1" points="429.5 56.26 504.07 262.27 578.68 56.26 629.27 56.26 532.35 310.19 474.28 310.06 378.22 56.26 429.5 56.26"/>
      <path class="cls-1" d="M1174.7,310.15h-40.75l-4.94-28.88c-8.38,14.91-22.99,26.3-39.63,30.65-21.36,5.59-55.66,2.02-73.11-12.59-27.42-23.08-23.73-65.33,7.05-83.51,30.77-18.18,70.02-10.23,103.37-11.95v-12.81c0-1.81-3.57-9.8-4.73-11.69-15.39-24.76-67.18-20.59-72.16,10.7h-47.32c3.22-37.87,37.31-59.74,72.64-63.65,45.73-5.03,95.63,12.81,99.59,64.6v119.14ZM1125.4,232.74h-50.93c-8.55,0-21.62,7.69-24.5,16.2-5.89,17.28,8.73,27.98,24.46,29.1,29.79,2.11,46.93-17.45,50.98-45.3Z"/>
      <path class="cls-1" d="M802.1,231.41h-141.92c.95,45.9,66.1,62.41,88.37,22.31h48.31c-8.21,28.24-32.79,50.16-61.12,57.42-80.2,20.54-146.78-49.04-116.65-127.61,31.07-80.98,161.39-76.46,181.51,9.03,2.97,12.68,2.54,25.96,1.5,38.85ZM754.13,202.57c-2.45-50.89-81.71-51.49-92.19-5.16-.34,1.55-1.5,4.17-.13,5.16h92.32Z"/>
      <path class="cls-1" d="M1407.31,130.4v107.92c0,4.38,4.94,16.81,7.35,20.89,13.58,22.87,50.8,20.11,66.92,1.46,5.29-6.1,12.46-20.89,12.46-28.88v-101.35h47.97v179.79h-41.73l-4.3-30.17c-5.97,8.51-11.99,16.38-20.8,22.18-47.19,30.99-114.24,3.44-115.19-55.96l-.64-115.79h47.97v-.09Z"/>
      <path class="cls-1" d="M1720.77,181.55h-45.34c-1.59-7.91-6.62-14.05-14.1-17.06-12.21-4.9-39.67-4.73-44.7,10.53-3.22,9.76,3.78,14.44,11.69,17.84,35.5,15.22,102.94,10.62,99.67,65.8-1.85,31.42-28.41,48.95-57.04,53.94-44.57,7.74-101.48-8.47-108.57-59.49h48.61c5.07,23.25,37.14,31.16,56.52,21.96,14.66-6.96,17.32-25.79,1.33-32.79-33.14-14.44-107.37-12.03-99.16-67.52,7.61-51.23,82.48-59.36,120.17-38.81,16.81,9.15,29.18,26.26,30.86,45.6h.04Z"/>
      <path class="cls-1" d="M972.95,181.55h-45.34c-1.5-7.52-6.49-13.97-13.62-16.89-11.56-4.73-36.62-4.94-43.67,7.26-9.58,16.63,12.68,22.31,24.41,25.7,34.26,9.93,87.94,11.78,85.4,60.34-1.63,31.85-27.98,49.51-57.04,54.59-44.53,7.74-101.52-8.47-108.57-59.49h48.61c4.81,24.54,43.02,32.75,61.08,19.3,10.23-7.61,10.32-23.9-1.76-29.66-29.87-14.14-99.41-11.39-101.35-58.24-2.54-61.81,92.84-73.88,130.79-41.99,11.6,9.76,19.64,23.81,21.02,39.03l.04.04Z"/>
      <rect class="cls-1" x="1202.29" y="49.04" width="47.97" height="261.11"/>
      <polygon class="cls-1" points="1331.1 130.4 1331.1 309.16 1330.11 310.15 1283.44 310.15 1282.45 309.16 1282.45 130.4 1331.1 130.4"/>
      <path class="cls-1" d="M1908.08,311.48h-23.64l-1.98-16.42c-7.44,9.84-17.06,17.88-29.91,19-24.28,2.15-49.51-8.81-46.25-37.01,1.76-15,21.66-27.94,35.76-27.94h38.42c4.43-27.64-38.77-32.49-44.7-7.87h-26.95c2.58-44.14,77.19-51.02,95.16-15.3,4.3,8.55,3.91,13.2,4.04,22.18.3,21.1-.13,42.25,0,63.35h.04ZM1879.79,266.18h-29.91c-3.7,0-11.13,3.95-12.94,7.39-4.43,8.47.04,15.95,8.81,18.35,18.48,5.16,31.85-8.3,34.04-25.79v.04Z"/>
      <rect class="cls-1" x="1936.31" y="205.83" width="27.59" height="105.65"/>
      <path class="cls-3" d="M1284,93.4c-11.69-11.69-8.6-31.98,5.72-40.06,21.49-12.12,52.91,2.06,45.9,29.44-5.42,21.19-37.09,25.19-51.62,10.62h0Z"/>
      <path class="cls-1" d="M1763.96,281.44c8.9-1.5,18.4,1.16,21.49,10.36,6.45,18.87-20.42,29.01-31.2,14.1-6.36-8.81-.69-22.74,9.67-24.46h.04Z"/>
      <path class="cls-1" d="M1947.32,158.13c23.42-3.01,26.95,28.11,6.23,31.16-24.71,3.61-28.75-28.24-6.23-31.16Z"/>
      <g>
        <path class="cls-2" d="M79.16,0c4.21.95,8.51,1.5,12.68,2.66,25.01,6.79,44.61,26.82,50.37,52.09.3,1.33.69,6.92.95,7.18s3.09-.13,3.91,0c-.04.04.47.73.26,1.33-4.13,11.3-4.51,22.05-2.23,33.87-15.86,2.15-31.68,6.58-45.39,14.91-27.64-25.27-67.09,10.53-40.92,39.46-8.21,13.02-13.28,28.15-14.91,43.5,14.74-14.91,43.2-8.94,48.53,11.86,6.79,26.39-23.81,44.66-44.96,29.23-.52-.09-.39.6-.3.95,5.59,21.53,22.31,44.1,39.89,57.38,55.87,42.04,140.12,25.75,173.17-36.36,1.85-3.48,6.58-12.94,7.09-16.42.17-1.07,0-1.07-.99-.99-2.36.17-5.59,1.29-7.82,1.33-13.41.09-27.08-10.79-28.41-24.46-2.28-22.87,20.85-36.92,41.13-28.37.17-.77-.26-2.92,0-3.22.26-.26,5.16-1.2,6.83-1.98,4.51-2.02,11.13-7.35,13.37-11.73,12.46,56.95-14.01,114.07-62.79,144.41-64.94,40.44-153.4,23.6-197.11-39.2C-.09,231.92-.91,171.71,30.04,125.55c-12.89-9.63-23.51-22.99-27.64-38.81-.95-3.65-1.12-7.52-2.28-11.09.3-4.21-.39-8.9,0-13.07C3.17,29.61,32.79,2.66,65.45,0h13.71Z"/>
        <path class="cls-4" d="M254.27,105.04c-2.06,4.73-7.78,12.59-11.39,16.33-1.2,1.25-6.28,3.95-5.29,5.85,1.29,2.49,8.12,7.13,9.84,10.32,5.63-4.51,13.02-6.75,20.24-6.4l8.17,1.29c1.46,1.81,5.5,3.05,7.87,4.86,10.36,8.12,13.88,23.08,7.82,34.9-2.23,4.38-8.85,9.71-13.37,11.73-1.68.77-6.58,1.72-6.83,1.98-.3.3.13,2.49,0,3.22-20.29-8.55-43.41,5.5-41.13,28.37,1.33,13.67,15,24.54,28.41,24.46,2.28,0,5.46-1.16,7.82-1.33.99-.09,1.16-.09.99.99-.52,3.48-5.24,12.94-7.09,16.42-33.1,62.11-117.29,78.4-173.17,36.36-17.62-13.24-34.3-35.85-39.89-57.38-.09-.34-.17-1.07.3-.95,21.15,15.43,51.75-2.84,44.96-29.23-5.37-20.8-33.78-26.78-48.53-11.86,1.63-15.39,6.7-30.47,14.91-43.5-26.18-28.93,13.28-64.73,40.92-39.46,13.71-8.34,29.53-12.77,45.39-14.91-2.28-11.82-1.89-22.56,2.23-33.87.21-.6-.3-1.29-.26-1.33,6.45-7.52,9.54-15.95,18.74-22.74,46.33-34.3,111.53,12.77,88.41,65.76l-.09.13Z"/>
        <path class="cls-2" d="M275.8,132.42l-8.17-1.29c-7.22-.34-14.61,1.89-20.24,6.4-1.72-3.18-8.55-7.82-9.84-10.32-.95-1.89,4.08-4.56,5.29-5.85,3.61-3.74,9.37-11.65,11.39-16.33,6.45,5.42,11.6,12.29,16.46,19.08,1.81,2.49,3.35,6.19,5.07,8.3h.04Z"/>
      </g>
    </g>
  </g>
</svg>