<svg width="237" height="41" viewBox="0 0 237 41" fill="none" xmlns="http://www.w3.org/2000/svg">
<path d="M0.868166 24.2653C0.863128 21.0427 1.82813 17.8879 3.64625 15.1834C2.51811 14.4103 1.59843 13.3881 0.964076 12.2022C0.329719 11.0164 -0.000833202 9.70149 1.57719e-06 8.36735C1.57719e-06 6.14819 0.914692 4.01992 2.54282 2.45074C4.17094 0.881557 6.37913 8.44456e-09 8.68165 8.44456e-09C10.838 -9.33102e-05 12.9172 0.773246 14.5144 2.16945C16.1117 3.56565 17.1127 5.48479 17.3225 7.5532C17.6235 7.53814 17.9264 7.53061 18.2315 7.53061C20.5116 7.53061 22.7695 7.96347 24.8761 8.80446C26.9827 9.64546 28.8968 10.8781 30.5091 12.4321C32.1215 13.9861 33.4004 15.8309 34.273 17.8612C35.1456 19.8916 35.5948 22.0677 35.5948 24.2653C35.5948 28.7036 33.7654 32.9602 30.5091 36.0985C27.2529 39.2369 22.8365 41 18.2315 41C13.6264 41 9.21005 39.2369 5.9538 36.0985C2.69755 32.9602 0.868166 28.7036 0.868166 24.2653Z" fill="#0B759F"/>
<path d="M5.209 25.1021C5.20488 22.7096 5.86909 20.3601 7.13196 18.3003C6.79777 17.9886 6.53213 17.6153 6.35091 17.2026C6.16968 16.7899 6.0766 16.3462 6.07717 15.898C6.07717 15.0103 6.44309 14.159 7.09434 13.5314C7.74559 12.9037 8.62882 12.5511 9.54983 12.5511C10.0149 12.5506 10.4752 12.6405 10.9035 12.8153C11.3317 12.9901 11.719 13.2463 12.0423 13.5685C13.7412 12.6001 15.636 11.994 17.5986 11.7913C17.4404 11.2204 17.3613 10.6318 17.3633 10.0409C17.3633 8.26554 18.095 6.56292 19.3975 5.30758C20.7 4.05223 22.4666 3.34698 24.3086 3.34698C26.1506 3.34698 27.9172 4.05223 29.2197 5.30758C30.5222 6.56292 31.2539 8.26554 31.2539 10.0409C31.2549 11.0585 31.0146 12.063 30.5515 12.9776C30.0884 13.8922 29.4147 14.6927 28.5817 15.3181C29.0515 15.7414 29.4904 16.1955 29.8953 16.677C30.5193 16.1727 31.3078 15.8969 32.1221 15.898C33.0431 15.898 33.9263 16.2506 34.5776 16.8783C35.2288 17.506 35.5948 18.3573 35.5948 19.2449C35.595 20.03 35.3089 20.7902 34.7865 21.3925C34.264 21.9949 33.5385 22.401 32.7368 22.54C32.906 23.3843 32.9909 24.2422 32.9903 25.1021C32.9903 28.6527 31.5268 32.058 28.9218 34.5687C26.3168 37.0793 22.7837 38.4898 19.0996 38.4898C15.4156 38.4898 11.8825 37.0793 9.27746 34.5687C6.67247 32.058 5.209 28.6527 5.209 25.1021Z" fill="#6DE6CF"/>
<path d="M27.7813 25.9387C27.7813 25.0511 28.1472 24.1998 28.7984 23.5721C29.4497 22.9444 30.3329 22.5918 31.2539 22.5918C32.1749 22.5918 33.0582 22.9444 33.7094 23.5721C34.3607 24.1998 34.7266 25.0511 34.7266 25.9387C34.7266 26.8264 34.3607 27.6777 33.7094 28.3054C33.0582 28.9331 32.1749 29.2857 31.2539 29.2857C30.3329 29.2857 29.4497 28.9331 28.7984 28.3054C28.1472 27.6777 27.7813 26.8264 27.7813 25.9387ZM4.34082 25.9387C4.34082 25.0511 4.70674 24.1998 5.35799 23.5721C6.00924 22.9444 6.89247 22.5918 7.81348 22.5918C8.73448 22.5918 9.61772 22.9444 10.269 23.5721C10.9202 24.1998 11.2861 25.0511 11.2861 25.9387C11.2861 26.8264 10.9202 27.6777 10.269 28.3054C9.61772 28.9331 8.73448 29.2857 7.81348 29.2857C6.89247 29.2857 6.00924 28.9331 5.35799 28.3054C4.70674 27.6777 4.34082 26.8264 4.34082 25.9387Z" fill="#0B759F"/>
<path d="M56.5665 36.544L44.978 6.00401H51.1794L60.1427 30.829L69.1508 6.00401H75.2619L63.6734 36.544H56.5665ZM84.815 37.0678C82.7171 37.1065 80.6441 36.6257 78.7942 35.6713C77.0655 34.7614 75.6378 33.4006 74.6745 31.7448C73.6531 29.9563 73.1388 27.9399 73.1834 25.8988C73.1426 23.8191 73.6475 21.7632 74.6513 19.9219C75.5874 18.2214 76.9994 16.808 78.7271 15.842C80.5975 14.8335 82.7146 14.3275 84.8572 14.3769C86.8975 14.3376 88.9122 14.8194 90.6966 15.7734C92.3556 16.6736 93.7264 17.9953 94.6597 19.5946C95.6183 21.2386 96.1101 23.0973 96.0854 24.983C96.0854 25.3024 96.0779 25.6369 96.063 25.9866C96.0481 26.3363 96.0255 26.6999 95.9951 27.0773H78.93C78.9478 27.8231 79.1189 28.5581 79.4336 29.2397C79.7483 29.9212 80.2003 30.5358 80.7633 31.0478C81.8581 32.0042 83.2923 32.5187 84.7694 32.4849C85.8144 32.5198 86.8465 32.2541 87.7343 31.7216C88.5122 31.2363 89.1317 30.5488 89.5211 29.7384H95.4028C94.978 31.1094 94.2611 32.3798 93.2978 33.4685C92.3075 34.5953 91.0707 35.4967 89.6761 36.1081C88.1475 36.7669 86.4876 37.0945 84.8133 37.0678H84.815ZM84.8572 18.9183C83.5072 18.8971 82.1872 19.3032 81.0996 20.0744C79.9557 20.9381 79.2082 22.1991 79.017 23.5874H90.2004C90.1849 22.9429 90.0322 22.3084 89.7519 21.7231C89.4717 21.1378 89.0697 20.6141 88.571 20.1846C87.5416 19.3285 86.2161 18.8766 84.8572 18.9183ZM107.991 37.0678C106.193 37.1032 104.406 36.7839 102.74 36.1296C101.325 35.5723 100.079 34.6795 99.1182 33.534C98.212 32.4268 97.6474 31.0963 97.4887 29.6944H103.331C103.53 30.5627 104.054 31.3299 104.802 31.8502C105.701 32.4765 106.794 32.7916 107.903 32.7444C108.893 32.8244 109.88 32.5614 110.687 32.0027C110.956 31.8003 111.175 31.5425 111.328 31.2482C111.481 30.9538 111.563 30.6303 111.57 30.3012C111.601 29.8951 111.495 29.4902 111.266 29.1478C111.037 28.8054 110.699 28.5441 110.302 28.4034C109.156 27.9832 107.975 27.6547 106.772 27.4214C105.803 27.2207 104.822 26.9751 103.828 26.6844C102.875 26.4114 101.957 26.0385 101.089 25.5723C100.288 25.1465 99.5986 24.5494 99.0743 23.8269C98.5403 23.0451 98.2713 22.1228 98.3047 21.1874C98.2947 20.2596 98.5033 19.3416 98.9147 18.5027C99.3261 17.6638 99.9295 16.9258 100.68 16.3442C102.264 15.0327 104.49 14.3769 107.357 14.3769C109.626 14.2636 111.868 14.894 113.718 16.1654C114.507 16.7642 115.164 17.5093 115.65 18.3567C116.136 19.2042 116.44 20.1368 116.546 21.0996H111.069C110.737 19.5001 109.485 18.7003 107.312 18.7003C106.429 18.6477 105.551 18.8611 104.799 19.3111C104.531 19.4739 104.31 19.6991 104.155 19.966C104.001 20.2329 103.919 20.5329 103.916 20.8385C103.916 21.4772 104.354 21.9863 105.229 22.3658C106.354 22.82 107.522 23.1702 108.715 23.4118C110.285 23.7609 111.726 24.1463 113.039 24.5679C114.238 24.9209 115.323 25.5673 116.187 26.4441C117.032 27.4432 117.452 28.714 117.364 30.0002C117.408 31.2871 117.027 32.5541 116.275 33.6186C115.46 34.7428 114.329 35.6203 113.016 36.1488C111.427 36.7929 109.715 37.106 107.991 37.0678ZM127.956 37.0678C126.321 37.1264 124.694 36.8204 123.202 36.1735C122.06 35.6595 121.099 34.8325 120.441 33.7959C119.837 32.8042 119.524 31.6725 119.536 30.5224C119.512 29.5794 119.721 28.6445 120.146 27.7947C120.571 26.9449 121.199 26.2045 121.979 25.6345C123.608 24.3837 126.053 23.7583 129.312 23.7583H135.015V23.2393C135.068 22.6334 134.978 22.0238 134.75 21.4566C134.523 20.8895 134.164 20.3796 133.702 19.9658C132.781 19.2525 131.625 18.8812 130.443 18.9191C129.358 18.8949 128.289 19.1754 127.366 19.7263C126.935 19.9891 126.567 20.3369 126.287 20.7468C126.006 21.1566 125.818 21.6192 125.736 22.104H120.078C120.197 20.6096 120.772 19.1826 121.729 18.0017C122.704 16.821 123.973 15.898 125.419 15.3191C127.025 14.6754 128.75 14.3561 130.489 14.3809C133.688 14.3809 136.208 15.1527 138.049 16.6963C139.89 18.2399 140.81 20.4222 140.81 23.2433V36.544H135.876L135.333 33.0534C134.666 34.2205 133.709 35.2103 132.548 35.934C131.166 36.7394 129.568 37.1338 127.954 37.0678H127.956ZM129.269 32.7053C129.995 32.7435 130.721 32.622 131.392 32.3499C132.062 32.0778 132.66 31.6623 133.139 31.1348C134.087 30.0245 134.69 28.6785 134.879 27.2521H129.945C128.78 27.1515 127.614 27.4362 126.64 28.0593C126.328 28.2948 126.076 28.5963 125.904 28.9404C125.731 29.2845 125.643 29.6621 125.646 30.0442C125.629 30.4254 125.71 30.8047 125.884 31.1476C126.058 31.4905 126.318 31.7861 126.64 32.0074C127.416 32.5044 128.337 32.7489 129.267 32.7053H129.269ZM144.071 36.5448V5.13135H149.866V36.544L144.071 36.5448ZM153.759 36.5448V14.9039H159.553V36.5408L153.759 36.5448ZM171.776 37.0686C168.969 37.0686 166.804 36.2252 165.28 34.5384C163.756 32.8516 162.994 30.3792 162.994 27.1212V14.9039H168.743V26.5966C168.64 28.1074 169.054 29.6091 169.92 30.8721C170.371 31.3873 170.943 31.7908 171.589 32.0489C172.235 32.307 172.935 32.4122 173.632 32.3555C174.378 32.3741 175.119 32.2353 175.803 31.9489C176.487 31.6624 177.098 31.2352 177.593 30.6973C178.702 29.402 179.26 27.7493 179.154 26.0729V14.9039H184.948V36.5408H179.833L179.379 32.8761C178.694 34.1469 177.651 35.2054 176.369 35.93C174.974 36.7086 173.384 37.1022 171.773 37.0678L171.776 37.0686ZM197.895 37.0686C196.097 37.104 194.31 36.7847 192.644 36.1304C191.229 35.5731 189.983 34.6803 189.022 33.5348C188.116 32.4276 187.551 31.0971 187.393 29.6952H193.232C193.431 30.5635 193.955 31.3307 194.703 31.851C195.603 32.4773 196.695 32.7924 197.804 32.7452C198.794 32.8252 199.781 32.5622 200.588 32.0035C200.857 31.8011 201.077 31.5433 201.229 31.249C201.382 30.9546 201.465 30.6311 201.471 30.302C201.503 29.8959 201.396 29.491 201.167 29.1486C200.939 28.8062 200.6 28.5449 200.204 28.4042C199.057 27.984 197.876 27.6555 196.673 27.4222C195.707 27.2183 194.726 26.9711 193.731 26.6804C192.778 26.4074 191.86 26.0345 190.992 25.5683C190.191 25.1425 189.502 24.5455 188.977 23.8229C188.443 23.0412 188.174 22.1188 188.208 21.1834C188.198 20.2554 188.407 19.3374 188.818 18.4985C189.23 17.6596 189.834 16.9217 190.584 16.3402C192.169 15.0314 194.394 14.3769 197.261 14.3769C199.53 14.2636 201.772 14.894 203.622 16.1654C204.411 16.7636 205.068 17.508 205.554 18.3548C206.039 19.2015 206.344 20.1334 206.451 21.0956H200.973C200.642 19.4961 199.389 18.6963 197.216 18.6963C196.332 18.6449 195.454 18.8597 194.703 19.3111C194.435 19.4739 194.213 19.6991 194.059 19.966C193.905 20.2329 193.823 20.5329 193.82 20.8385C193.82 21.4772 194.258 21.9863 195.133 22.3658C196.258 22.8202 197.425 23.1707 198.619 23.4126C200.188 23.7617 201.629 24.1471 202.942 24.5687C204.142 24.9217 205.227 25.5681 206.09 26.4449C206.936 27.444 207.356 28.7148 207.268 30.001C207.311 31.2878 206.929 32.5546 206.177 33.6186C205.361 34.7428 204.231 35.6203 202.918 36.1488C201.328 36.7929 199.616 37.106 197.893 37.0678L197.895 37.0686Z" fill="#FFFFFF"/>
<path d="M156.654 11.5446C155.695 11.5793 154.761 11.2502 154.051 10.628C153.719 10.335 153.456 9.97657 153.28 9.57709C153.105 9.1776 153.02 8.74636 153.032 8.31259C153.019 7.88234 153.103 7.45448 153.279 7.05886C153.455 6.66325 153.719 6.30938 154.051 6.02195C154.767 5.41244 155.699 5.0922 156.654 5.12773C157.609 5.0922 158.541 5.41244 159.257 6.02195C159.589 6.30938 159.853 6.66325 160.029 7.05886C160.205 7.45448 160.289 7.88234 160.276 8.31259C160.288 8.74636 160.203 9.1776 160.027 9.57709C159.852 9.97657 159.589 10.335 159.257 10.628C158.547 11.2502 157.613 11.5793 156.654 11.5446Z" fill="#FF3366"/>
<path d="M212.222 36.9262C211.945 36.9359 211.669 36.8909 211.411 36.7939C211.152 36.697 210.916 36.5499 210.716 36.3617C210.527 36.1871 210.377 35.9757 210.275 35.741C210.174 35.5062 210.123 35.2534 210.127 34.9985C210.123 34.7412 210.173 34.4858 210.274 34.2484C210.376 34.0111 210.526 33.7969 210.716 33.6193C210.916 33.4316 211.152 33.2852 211.411 33.1888C211.67 33.0923 211.945 33.0479 212.222 33.058C212.498 33.0479 212.774 33.0923 213.033 33.1888C213.292 33.2852 213.528 33.4316 213.727 33.6193C213.918 33.7972 214.069 34.012 214.17 34.2499C214.271 34.4879 214.321 34.7439 214.317 35.0017C214.32 35.2566 214.27 35.5095 214.169 35.7442C214.067 35.9789 213.917 36.1903 213.727 36.3649C213.528 36.5526 213.292 36.699 213.033 36.7954C212.774 36.8919 212.498 36.9363 212.222 36.9262ZM221.543 37.0545C220.598 37.0889 219.657 36.9089 218.794 36.5285C218.133 36.2261 217.577 35.7398 217.197 35.13C216.847 34.547 216.666 33.8817 216.673 33.2056C216.66 32.651 216.781 32.1013 217.027 31.6017C217.272 31.102 217.636 30.6667 218.087 30.3317C219.335 29.5093 220.829 29.1208 222.329 29.2283H225.628V28.9204C225.659 28.5642 225.606 28.2058 225.475 27.8724C225.343 27.539 225.136 27.2393 224.869 26.996C224.336 26.5771 223.669 26.3586 222.987 26.3801C222.359 26.3658 221.74 26.5308 221.206 26.8548C220.957 27.0094 220.744 27.214 220.582 27.455C220.419 27.6961 220.311 27.9681 220.264 28.2533H216.991C217.059 27.375 217.39 26.5359 217.943 25.8413C218.507 25.1468 219.241 24.6038 220.077 24.2632C221.006 23.8847 222.004 23.6969 223.01 23.7116C224.588 23.6246 226.145 24.1098 227.382 25.0747C227.924 25.5591 228.349 26.1561 228.625 26.8221C228.902 27.488 229.023 28.206 228.979 28.9236V36.7466H226.125L225.811 34.6938C225.425 35.38 224.872 35.9618 224.201 36.3873C223.401 36.8613 222.477 37.0933 221.543 37.0545ZM222.303 34.4885C222.723 34.5116 223.144 34.4404 223.532 34.2803C223.921 34.1202 224.267 33.8755 224.545 33.5648C225.094 32.912 225.443 32.1203 225.553 31.2811H222.695C222.022 31.2219 221.348 31.3894 220.784 31.7558C220.604 31.8946 220.458 32.0719 220.359 32.2743C220.26 32.4767 220.209 32.6987 220.211 32.9233C220.201 33.1473 220.248 33.3703 220.348 33.572C220.448 33.7736 220.598 33.9476 220.784 34.078C221.232 34.3701 221.765 34.5139 222.303 34.4885ZM233.98 22.0437C233.426 22.0642 232.885 21.8707 232.475 21.5049C232.283 21.3323 232.131 21.1213 232.029 20.8861C231.927 20.6509 231.878 20.397 231.886 20.1417C231.878 19.8887 231.927 19.6371 232.029 19.4044C232.13 19.1718 232.283 18.9636 232.475 18.7946C232.889 18.4361 233.428 18.2477 233.98 18.2686C234.533 18.2477 235.072 18.4361 235.486 18.7946C235.678 18.9636 235.83 19.1718 235.932 19.4044C236.034 19.6371 236.083 19.8887 236.075 20.1417C236.082 20.397 236.034 20.6509 235.932 20.8861C235.83 21.1213 235.678 21.3323 235.486 21.5049C235.075 21.8707 234.535 22.0642 233.98 22.0437ZM232.305 36.7466V24.0195H235.659V36.7466H232.305Z" fill="#FFFFFF"/>
</svg>
