<?xml version="1.0" encoding="UTF-8"?>
<svg id="Laag_1" data-name="Laag 1" xmlns="http://www.w3.org/2000/svg" viewBox="0 0 68.52 78.77">
  <defs>
    <style>
      .cls-1 {
        fill: #275268;
      }

      .cls-2 {
        fill: #0995a0;
      }
    </style>
  </defs>
  <path class="cls-1" d="M18.42,0c.98.22,1.98.35,2.95.62,5.82,1.58,10.38,6.24,11.72,12.12.07.31.16,1.61.22,1.67s.72-.03.91,0c0,.01.11.17.06.31-.96,2.63-1.05,5.13-.52,7.88-3.69.5-7.37,1.53-10.56,3.47-6.43-5.88-15.61,2.45-9.52,9.18-1.91,3.03-3.09,6.55-3.47,10.12,3.43-3.47,10.05-2.08,11.29,2.76,1.58,6.14-5.54,10.39-10.46,6.8-.12-.02-.09.14-.07.22,1.3,5.01,5.19,10.26,9.28,13.35,13,9.78,32.6,5.99,40.29-8.46.43-.81,1.53-3.01,1.65-3.82.04-.25,0-.25-.23-.23-.55.04-1.3.3-1.82.31-3.12.02-6.3-2.51-6.61-5.69-.53-5.32,4.85-8.59,9.57-6.6.04-.18-.06-.68,0-.75.06-.06,1.2-.28,1.59-.46,1.05-.47,2.59-1.71,3.11-2.73,2.9,13.25-3.26,26.54-14.61,33.6-15.11,9.41-35.69,5.49-45.86-9.12C-.02,53.96-.21,39.95,6.99,29.21c-3-2.24-5.47-5.35-6.43-9.03-.22-.85-.26-1.75-.53-2.58.07-.98-.09-2.07,0-3.04C.74,6.89,7.63.62,15.23,0h3.19Z"/>
  <path class="cls-2" d="M59.16,24.44c-.48,1.1-1.81,2.93-2.65,3.8-.28.29-1.46.92-1.23,1.36.3.58,1.89,1.66,2.29,2.4,1.31-1.05,3.03-1.57,4.71-1.49l1.9.3c.34.42,1.28.71,1.83,1.13,2.41,1.89,3.23,5.37,1.82,8.12-.52,1.02-2.06,2.26-3.11,2.73-.39.18-1.53.4-1.59.46-.07.07.03.58,0,.75-4.72-1.99-10.1,1.28-9.57,6.6.31,3.18,3.49,5.71,6.61,5.69.53,0,1.27-.27,1.82-.31.23-.02.27-.02.23.23-.12.81-1.22,3.01-1.65,3.82-7.7,14.45-27.29,18.24-40.29,8.46-4.1-3.08-7.98-8.34-9.28-13.35-.02-.08-.04-.25.07-.22,4.92,3.59,12.04-.66,10.46-6.8-1.25-4.84-7.86-6.23-11.29-2.76.38-3.58,1.56-7.09,3.47-10.12-6.09-6.73,3.09-15.06,9.52-9.18,3.19-1.94,6.87-2.97,10.56-3.47-.53-2.75-.44-5.25.52-7.88.05-.14-.07-.3-.06-.31,1.5-1.75,2.22-3.71,4.36-5.29,10.78-7.98,25.95,2.97,20.57,15.3,0,0-.02.03-.02.03Z"/>
  <path class="cls-1" d="M64.17,30.81l-1.9-.3c-1.68-.08-3.4.44-4.71,1.49-.4-.74-1.99-1.82-2.29-2.4-.22-.44.95-1.06,1.23-1.36.84-.87,2.18-2.71,2.65-3.8,1.5,1.26,2.7,2.86,3.83,4.44.42.58.78,1.44,1.18,1.93,0,0,.01,0,.01,0Z"/>
</svg>